<svg width="565" height="593" viewBox="0 0 565 593" fill="none" xmlns="http://www.w3.org/2000/svg">
<path d="M146 301H277L360 529.5L194 592L49 529.5L146 301Z" fill="#4F64D3" stroke="black"/>
<path d="M162.179 409.476L27.5264 323.25L42.6818 314.5L180.366 398.976L162.179 409.476Z" fill="#4F64D3"/>
<circle cx="212" cy="268" r="71" fill="#C4C4C4"/>
<circle cx="51.9808" cy="327.606" r="30" transform="rotate(-120 51.9808 327.606)" fill="#C4C4C4"/>
<circle cx="185" cy="256" r="20" fill="white"/>
<circle cx="244" cy="256" r="20" fill="white"/>
<path d="M190 259C190 264.799 185.299 269.5 179.5 269.5C173.701 269.5 169 264.799 169 259C169 253.201 173.701 248.5 179.5 248.5C185.299 248.5 190 253.201 190 259Z" fill="black"/>
<circle cx="243.5" cy="254.5" r="10.5" fill="black"/>
<ellipse cx="212" cy="307" rx="40" ry="6" fill="#F5F5F5"/>
<path d="M222.412 279.88L212.5 289.793L202.588 279.88L212.5 255.335L222.412 279.88Z" stroke="#5F5BFF"/>
<path d="M1 192.5V1.5L564 46V192.5H291.5L264.5 211L271 192.5H1Z" fill="#5B5B5B" stroke="black"/>
<path d="M51.25 97H45.2188V75.9688H22.2812V97H16.2812V51.5H22.2812V71.0625H45.2188V51.5H51.25V97ZM59.4688 79.7812C59.4688 76.4688 60.1146 73.4896 61.4062 70.8438C62.7188 68.1979 64.5312 66.1562 66.8438 64.7188C69.1771 63.2812 71.8333 62.5625 74.8125 62.5625C79.4167 62.5625 83.1354 64.1562 85.9688 67.3438C88.8229 70.5312 90.25 74.7708 90.25 80.0625V80.4688C90.25 83.7604 89.6146 86.7188 88.3438 89.3438C87.0938 91.9479 85.2917 93.9792 82.9375 95.4375C80.6042 96.8958 77.9167 97.625 74.875 97.625C70.2917 97.625 66.5729 96.0312 63.7188 92.8438C60.8854 89.6562 59.4688 85.4375 59.4688 80.1875V79.7812ZM65.2812 80.4688C65.2812 84.2188 66.1458 87.2292 67.875 89.5C69.625 91.7708 71.9583 92.9062 74.875 92.9062C77.8125 92.9062 80.1458 91.7604 81.875 89.4688C83.6042 87.1562 84.4688 83.9271 84.4688 79.7812C84.4688 76.0729 83.5833 73.0729 81.8125 70.7812C80.0625 68.4688 77.7292 67.3125 74.8125 67.3125C71.9583 67.3125 69.6562 68.4479 67.9062 70.7188C66.1562 72.9896 65.2812 76.2396 65.2812 80.4688ZM103.781 97H98V49H103.781V97ZM133.938 97C133.604 96.3333 133.333 95.1458 133.125 93.4375C130.438 96.2292 127.229 97.625 123.5 97.625C120.167 97.625 117.427 96.6875 115.281 94.8125C113.156 92.9167 112.094 90.5208 112.094 87.625C112.094 84.1042 113.427 81.375 116.094 79.4375C118.781 77.4792 122.552 76.5 127.406 76.5H133.031V73.8438C133.031 71.8229 132.427 70.2188 131.219 69.0312C130.01 67.8229 128.229 67.2188 125.875 67.2188C123.812 67.2188 122.083 67.7396 120.688 68.7812C119.292 69.8229 118.594 71.0833 118.594 72.5625H112.781C112.781 70.875 113.375 69.25 114.562 67.6875C115.771 66.1042 117.396 64.8542 119.438 63.9375C121.5 63.0208 123.76 62.5625 126.219 62.5625C130.115 62.5625 133.167 63.5417 135.375 65.5C137.583 67.4375 138.729 70.1146 138.812 73.5312V89.0938C138.812 92.1979 139.208 94.6667 140 96.5V97H133.938ZM124.344 92.5938C126.156 92.5938 127.875 92.125 129.5 91.1875C131.125 90.25 132.302 89.0312 133.031 87.5312V80.5938H128.5C121.417 80.5938 117.875 82.6667 117.875 86.8125C117.875 88.625 118.479 90.0417 119.688 91.0625C120.896 92.0833 122.448 92.5938 124.344 92.5938ZM154.344 84.1562H149.125L148.719 51.5H154.781L154.344 84.1562ZM148.5 94.0938C148.5 93.1562 148.781 92.375 149.344 91.75C149.927 91.1042 150.781 90.7812 151.906 90.7812C153.031 90.7812 153.885 91.1042 154.469 91.75C155.052 92.375 155.344 93.1562 155.344 94.0938C155.344 95.0312 155.052 95.8125 154.469 96.4375C153.885 97.0417 153.031 97.3438 151.906 97.3438C150.781 97.3438 149.927 97.0417 149.344 96.4375C148.781 95.8125 148.5 95.0312 148.5 94.0938ZM181.156 97V51.5H196.031C200.969 51.5 204.677 52.5208 207.156 54.5625C209.656 56.6042 210.906 59.625 210.906 63.625C210.906 65.75 210.302 67.6354 209.094 69.2812C207.885 70.9062 206.24 72.1667 204.156 73.0625C206.615 73.75 208.552 75.0625 209.969 77C211.406 78.9167 212.125 81.2083 212.125 83.875C212.125 87.9583 210.802 91.1667 208.156 93.5C205.51 95.8333 201.771 97 196.938 97H181.156ZM187.156 75.7188V92.0938H197.062C199.854 92.0938 202.052 91.375 203.656 89.9375C205.281 88.4792 206.094 86.4792 206.094 83.9375C206.094 78.4583 203.115 75.7188 197.156 75.7188H187.156ZM187.156 70.9062H196.219C198.844 70.9062 200.938 70.25 202.5 68.9375C204.083 67.625 204.875 65.8438 204.875 63.5938C204.875 61.0938 204.146 59.2812 202.688 58.1562C201.229 57.0104 199.01 56.4375 196.031 56.4375H187.156V70.9062ZM226.406 97H220.625V63.1875H226.406V97ZM220.156 54.2188C220.156 53.2812 220.438 52.4896 221 51.8438C221.583 51.1979 222.438 50.875 223.562 50.875C224.688 50.875 225.542 51.1979 226.125 51.8438C226.708 52.4896 227 53.2812 227 54.2188C227 55.1562 226.708 55.9375 226.125 56.5625C225.542 57.1875 224.688 57.5 223.562 57.5C222.438 57.5 221.583 57.1875 221 56.5625C220.438 55.9375 220.156 55.1562 220.156 54.2188ZM249.719 97.625C245.135 97.625 241.406 96.125 238.531 93.125C235.656 90.1042 234.219 86.0729 234.219 81.0312V79.9688C234.219 76.6146 234.854 73.625 236.125 71C237.417 68.3542 239.208 66.2917 241.5 64.8125C243.812 63.3125 246.312 62.5625 249 62.5625C253.396 62.5625 256.812 64.0104 259.25 66.9062C261.688 69.8021 262.906 73.9479 262.906 79.3438V81.75H240C240.083 85.0833 241.052 87.7812 242.906 89.8438C244.781 91.8854 247.156 92.9062 250.031 92.9062C252.073 92.9062 253.802 92.4896 255.219 91.6562C256.635 90.8229 257.875 89.7188 258.938 88.3438L262.469 91.0938C259.635 95.4479 255.385 97.625 249.719 97.625ZM249 67.3125C246.667 67.3125 244.708 68.1667 243.125 69.875C241.542 71.5625 240.562 73.9375 240.188 77H257.125V76.5625C256.958 73.625 256.167 71.3542 254.75 69.75C253.333 68.125 251.417 67.3125 249 67.3125ZM275.094 63.1875L275.281 67.4375C277.865 64.1875 281.24 62.5625 285.406 62.5625C292.552 62.5625 296.156 66.5938 296.219 74.6562V97H290.438V74.625C290.417 72.1875 289.854 70.3854 288.75 69.2188C287.667 68.0521 285.969 67.4688 283.656 67.4688C281.781 67.4688 280.135 67.9688 278.719 68.9688C277.302 69.9688 276.198 71.2812 275.406 72.9062V97H269.625V63.1875H275.094ZM316.094 89.1562L324.469 63.1875H330.375L318.25 97H313.844L301.594 63.1875H307.5L316.094 89.1562ZM349.531 97.625C344.948 97.625 341.219 96.125 338.344 93.125C335.469 90.1042 334.031 86.0729 334.031 81.0312V79.9688C334.031 76.6146 334.667 73.625 335.938 71C337.229 68.3542 339.021 66.2917 341.312 64.8125C343.625 63.3125 346.125 62.5625 348.812 62.5625C353.208 62.5625 356.625 64.0104 359.062 66.9062C361.5 69.8021 362.719 73.9479 362.719 79.3438V81.75H339.812C339.896 85.0833 340.865 87.7812 342.719 89.8438C344.594 91.8854 346.969 92.9062 349.844 92.9062C351.885 92.9062 353.615 92.4896 355.031 91.6562C356.448 90.8229 357.688 89.7188 358.75 88.3438L362.281 91.0938C359.448 95.4479 355.198 97.625 349.531 97.625ZM348.812 67.3125C346.479 67.3125 344.521 68.1667 342.938 69.875C341.354 71.5625 340.375 73.9375 340 77H356.938V76.5625C356.771 73.625 355.979 71.3542 354.562 69.75C353.146 68.125 351.229 67.3125 348.812 67.3125ZM374.906 63.1875L375.094 67.4375C377.677 64.1875 381.052 62.5625 385.219 62.5625C392.365 62.5625 395.969 66.5938 396.031 74.6562V97H390.25V74.625C390.229 72.1875 389.667 70.3854 388.562 69.2188C387.479 68.0521 385.781 67.4688 383.469 67.4688C381.594 67.4688 379.948 67.9688 378.531 68.9688C377.115 69.9688 376.01 71.2812 375.219 72.9062V97H369.438V63.1875H374.906ZM411.031 97H405.25V63.1875H411.031V97ZM404.781 54.2188C404.781 53.2812 405.062 52.4896 405.625 51.8438C406.208 51.1979 407.062 50.875 408.188 50.875C409.312 50.875 410.167 51.1979 410.75 51.8438C411.333 52.4896 411.625 53.2812 411.625 54.2188C411.625 55.1562 411.333 55.9375 410.75 56.5625C410.167 57.1875 409.312 57.5 408.188 57.5C407.062 57.5 406.208 57.1875 405.625 56.5625C405.062 55.9375 404.781 55.1562 404.781 54.2188ZM418.906 79.8125C418.906 74.625 420.135 70.4583 422.594 67.3125C425.052 64.1458 428.271 62.5625 432.25 62.5625C436.208 62.5625 439.344 63.9167 441.656 66.625V49H447.438V97H442.125L441.844 93.375C439.531 96.2083 436.312 97.625 432.188 97.625C428.271 97.625 425.073 96.0208 422.594 92.8125C420.135 89.6042 418.906 85.4167 418.906 80.25V79.8125ZM424.688 80.4688C424.688 84.3021 425.479 87.3021 427.062 89.4688C428.646 91.6354 430.833 92.7188 433.625 92.7188C437.292 92.7188 439.969 91.0729 441.656 87.7812V72.25C439.927 69.0625 437.271 67.4688 433.688 67.4688C430.854 67.4688 428.646 68.5625 427.062 70.75C425.479 72.9375 424.688 76.1771 424.688 80.4688ZM454.906 79.7812C454.906 76.4688 455.552 73.4896 456.844 70.8438C458.156 68.1979 459.969 66.1562 462.281 64.7188C464.615 63.2812 467.271 62.5625 470.25 62.5625C474.854 62.5625 478.573 64.1562 481.406 67.3438C484.26 70.5312 485.688 74.7708 485.688 80.0625V80.4688C485.688 83.7604 485.052 86.7188 483.781 89.3438C482.531 91.9479 480.729 93.9792 478.375 95.4375C476.042 96.8958 473.354 97.625 470.312 97.625C465.729 97.625 462.01 96.0312 459.156 92.8438C456.323 89.6562 454.906 85.4375 454.906 80.1875V79.7812ZM460.719 80.4688C460.719 84.2188 461.583 87.2292 463.312 89.5C465.062 91.7708 467.396 92.9062 470.312 92.9062C473.25 92.9062 475.583 91.7604 477.312 89.4688C479.042 87.1562 479.906 83.9271 479.906 79.7812C479.906 76.0729 479.021 73.0729 477.25 70.7812C475.5 68.4688 473.167 67.3125 470.25 67.3125C467.396 67.3125 465.094 68.4479 463.344 70.7188C461.594 72.9896 460.719 76.2396 460.719 80.4688ZM529.688 97C529.354 96.3333 529.083 95.1458 528.875 93.4375C526.188 96.2292 522.979 97.625 519.25 97.625C515.917 97.625 513.177 96.6875 511.031 94.8125C508.906 92.9167 507.844 90.5208 507.844 87.625C507.844 84.1042 509.177 81.375 511.844 79.4375C514.531 77.4792 518.302 76.5 523.156 76.5H528.781V73.8438C528.781 71.8229 528.177 70.2188 526.969 69.0312C525.76 67.8229 523.979 67.2188 521.625 67.2188C519.562 67.2188 517.833 67.7396 516.438 68.7812C515.042 69.8229 514.344 71.0833 514.344 72.5625H508.531C508.531 70.875 509.125 69.25 510.312 67.6875C511.521 66.1042 513.146 64.8542 515.188 63.9375C517.25 63.0208 519.51 62.5625 521.969 62.5625C525.865 62.5625 528.917 63.5417 531.125 65.5C533.333 67.4375 534.479 70.1146 534.562 73.5312V89.0938C534.562 92.1979 534.958 94.6667 535.75 96.5V97H529.688ZM520.094 92.5938C521.906 92.5938 523.625 92.125 525.25 91.1875C526.875 90.25 528.052 89.0312 528.781 87.5312V80.5938H524.25C517.167 80.5938 513.625 82.6667 513.625 86.8125C513.625 88.625 514.229 90.0417 515.438 91.0625C516.646 92.0833 518.198 92.5938 520.094 92.5938ZM21.6562 172H15.875V124H21.6562V172ZM51.8125 172C51.4792 171.333 51.2083 170.146 51 168.438C48.3125 171.229 45.1042 172.625 41.375 172.625C38.0417 172.625 35.3021 171.688 33.1562 169.812C31.0312 167.917 29.9688 165.521 29.9688 162.625C29.9688 159.104 31.3021 156.375 33.9688 154.438C36.6562 152.479 40.4271 151.5 45.2812 151.5H50.9062V148.844C50.9062 146.823 50.3021 145.219 49.0938 144.031C47.8854 142.823 46.1042 142.219 43.75 142.219C41.6875 142.219 39.9583 142.74 38.5625 143.781C37.1667 144.823 36.4688 146.083 36.4688 147.562H30.6562C30.6562 145.875 31.25 144.25 32.4375 142.688C33.6458 141.104 35.2708 139.854 37.3125 138.938C39.375 138.021 41.6354 137.562 44.0938 137.562C47.9896 137.562 51.0417 138.542 53.25 140.5C55.4583 142.438 56.6042 145.115 56.6875 148.531V164.094C56.6875 167.198 57.0833 169.667 57.875 171.5V172H51.8125ZM42.2188 167.594C44.0312 167.594 45.75 167.125 47.375 166.188C49 165.25 50.1771 164.031 50.9062 162.531V155.594H46.375C39.2917 155.594 35.75 157.667 35.75 161.812C35.75 163.625 36.3542 165.042 37.5625 166.062C38.7708 167.083 40.3229 167.594 42.2188 167.594ZM85.4375 163.031C85.4375 161.469 84.8438 160.26 83.6562 159.406C82.4896 158.531 80.4375 157.781 77.5 157.156C74.5833 156.531 72.2604 155.781 70.5312 154.906C68.8229 154.031 67.5521 152.99 66.7188 151.781C65.9062 150.573 65.5 149.135 65.5 147.469C65.5 144.698 66.6667 142.354 69 140.438C71.3542 138.521 74.3542 137.562 78 137.562C81.8333 137.562 84.9375 138.552 87.3125 140.531C89.7083 142.51 90.9062 145.042 90.9062 148.125H85.0938C85.0938 146.542 84.4167 145.177 83.0625 144.031C81.7292 142.885 80.0417 142.312 78 142.312C75.8958 142.312 74.25 142.771 73.0625 143.688C71.875 144.604 71.2812 145.802 71.2812 147.281C71.2812 148.677 71.8333 149.729 72.9375 150.438C74.0417 151.146 76.0312 151.823 78.9062 152.469C81.8021 153.115 84.1458 153.885 85.9375 154.781C87.7292 155.677 89.0521 156.76 89.9062 158.031C90.7812 159.281 91.2188 160.812 91.2188 162.625C91.2188 165.646 90.0104 168.073 87.5938 169.906C85.1771 171.719 82.0417 172.625 78.1875 172.625C75.4792 172.625 73.0833 172.146 71 171.188C68.9167 170.229 67.2812 168.896 66.0938 167.188C64.9271 165.458 64.3438 163.594 64.3438 161.594H70.125C70.2292 163.531 71 165.073 72.4375 166.219C73.8958 167.344 75.8125 167.906 78.1875 167.906C80.375 167.906 82.125 167.469 83.4375 166.594C84.7708 165.698 85.4375 164.51 85.4375 163.031ZM128.188 167.906C130.25 167.906 132.052 167.281 133.594 166.031C135.135 164.781 135.99 163.219 136.156 161.344H141.625C141.521 163.281 140.854 165.125 139.625 166.875C138.396 168.625 136.75 170.021 134.688 171.062C132.646 172.104 130.479 172.625 128.188 172.625C123.583 172.625 119.917 171.094 117.188 168.031C114.479 164.948 113.125 160.74 113.125 155.406V154.438C113.125 151.146 113.729 148.219 114.938 145.656C116.146 143.094 117.875 141.104 120.125 139.688C122.396 138.271 125.073 137.562 128.156 137.562C131.948 137.562 135.094 138.698 137.594 140.969C140.115 143.24 141.458 146.188 141.625 149.812H136.156C135.99 147.625 135.156 145.833 133.656 144.438C132.177 143.021 130.344 142.312 128.156 142.312C125.219 142.312 122.938 143.375 121.312 145.5C119.708 147.604 118.906 150.656 118.906 154.656V155.75C118.906 159.646 119.708 162.646 121.312 164.75C122.917 166.854 125.208 167.906 128.188 167.906ZM146.594 154.781C146.594 151.469 147.24 148.49 148.531 145.844C149.844 143.198 151.656 141.156 153.969 139.719C156.302 138.281 158.958 137.562 161.938 137.562C166.542 137.562 170.26 139.156 173.094 142.344C175.948 145.531 177.375 149.771 177.375 155.062V155.469C177.375 158.76 176.74 161.719 175.469 164.344C174.219 166.948 172.417 168.979 170.062 170.438C167.729 171.896 165.042 172.625 162 172.625C157.417 172.625 153.698 171.031 150.844 167.844C148.01 164.656 146.594 160.438 146.594 155.188V154.781ZM152.406 155.469C152.406 159.219 153.271 162.229 155 164.5C156.75 166.771 159.083 167.906 162 167.906C164.938 167.906 167.271 166.76 169 164.469C170.729 162.156 171.594 158.927 171.594 154.781C171.594 151.073 170.708 148.073 168.938 145.781C167.188 143.469 164.854 142.312 161.938 142.312C159.083 142.312 156.781 143.448 155.031 145.719C153.281 147.99 152.406 151.24 152.406 155.469ZM190.094 138.188L190.281 142.438C192.865 139.188 196.24 137.562 200.406 137.562C207.552 137.562 211.156 141.594 211.219 149.656V172H205.438V149.625C205.417 147.188 204.854 145.385 203.75 144.219C202.667 143.052 200.969 142.469 198.656 142.469C196.781 142.469 195.135 142.969 193.719 143.969C192.302 144.969 191.198 146.281 190.406 147.906V172H184.625V138.188H190.094ZM239.625 163.031C239.625 161.469 239.031 160.26 237.844 159.406C236.677 158.531 234.625 157.781 231.688 157.156C228.771 156.531 226.448 155.781 224.719 154.906C223.01 154.031 221.74 152.99 220.906 151.781C220.094 150.573 219.688 149.135 219.688 147.469C219.688 144.698 220.854 142.354 223.188 140.438C225.542 138.521 228.542 137.562 232.188 137.562C236.021 137.562 239.125 138.552 241.5 140.531C243.896 142.51 245.094 145.042 245.094 148.125H239.281C239.281 146.542 238.604 145.177 237.25 144.031C235.917 142.885 234.229 142.312 232.188 142.312C230.083 142.312 228.438 142.771 227.25 143.688C226.062 144.604 225.469 145.802 225.469 147.281C225.469 148.677 226.021 149.729 227.125 150.438C228.229 151.146 230.219 151.823 233.094 152.469C235.99 153.115 238.333 153.885 240.125 154.781C241.917 155.677 243.24 156.76 244.094 158.031C244.969 159.281 245.406 160.812 245.406 162.625C245.406 165.646 244.198 168.073 241.781 169.906C239.365 171.719 236.229 172.625 232.375 172.625C229.667 172.625 227.271 172.146 225.188 171.188C223.104 170.229 221.469 168.896 220.281 167.188C219.115 165.458 218.531 163.594 218.531 161.594H224.312C224.417 163.531 225.188 165.073 226.625 166.219C228.083 167.344 230 167.906 232.375 167.906C234.562 167.906 236.312 167.469 237.625 166.594C238.958 165.698 239.625 164.51 239.625 163.031ZM273.812 168.656C271.562 171.302 268.26 172.625 263.906 172.625C260.302 172.625 257.552 171.583 255.656 169.5C253.781 167.396 252.833 164.292 252.812 160.188V138.188H258.594V160.031C258.594 165.156 260.677 167.719 264.844 167.719C269.26 167.719 272.198 166.073 273.656 162.781V138.188H279.438V172H273.938L273.812 168.656ZM294.531 172H288.75V124H294.531V172ZM311.656 130V138.188H317.969V142.656H311.656V163.625C311.656 164.979 311.938 166 312.5 166.688C313.062 167.354 314.021 167.688 315.375 167.688C316.042 167.688 316.958 167.562 318.125 167.312V172C316.604 172.417 315.125 172.625 313.688 172.625C311.104 172.625 309.156 171.844 307.844 170.281C306.531 168.719 305.875 166.5 305.875 163.625V142.656H299.719V138.188H305.875V130H311.656ZM345.625 172C345.292 171.333 345.021 170.146 344.812 168.438C342.125 171.229 338.917 172.625 335.188 172.625C331.854 172.625 329.115 171.688 326.969 169.812C324.844 167.917 323.781 165.521 323.781 162.625C323.781 159.104 325.115 156.375 327.781 154.438C330.469 152.479 334.24 151.5 339.094 151.5H344.719V148.844C344.719 146.823 344.115 145.219 342.906 144.031C341.698 142.823 339.917 142.219 337.562 142.219C335.5 142.219 333.771 142.74 332.375 143.781C330.979 144.823 330.281 146.083 330.281 147.562H324.469C324.469 145.875 325.062 144.25 326.25 142.688C327.458 141.104 329.083 139.854 331.125 138.938C333.188 138.021 335.448 137.562 337.906 137.562C341.802 137.562 344.854 138.542 347.062 140.5C349.271 142.438 350.417 145.115 350.5 148.531V164.094C350.5 167.198 350.896 169.667 351.688 171.5V172H345.625ZM336.031 167.594C337.844 167.594 339.562 167.125 341.188 166.188C342.812 165.25 343.99 164.031 344.719 162.531V155.594H340.188C333.104 155.594 329.562 157.667 329.562 161.812C329.562 163.625 330.167 165.042 331.375 166.062C332.583 167.083 334.135 167.594 336.031 167.594ZM379.25 163.031C379.25 161.469 378.656 160.26 377.469 159.406C376.302 158.531 374.25 157.781 371.312 157.156C368.396 156.531 366.073 155.781 364.344 154.906C362.635 154.031 361.365 152.99 360.531 151.781C359.719 150.573 359.312 149.135 359.312 147.469C359.312 144.698 360.479 142.354 362.812 140.438C365.167 138.521 368.167 137.562 371.812 137.562C375.646 137.562 378.75 138.552 381.125 140.531C383.521 142.51 384.719 145.042 384.719 148.125H378.906C378.906 146.542 378.229 145.177 376.875 144.031C375.542 142.885 373.854 142.312 371.812 142.312C369.708 142.312 368.062 142.771 366.875 143.688C365.688 144.604 365.094 145.802 365.094 147.281C365.094 148.677 365.646 149.729 366.75 150.438C367.854 151.146 369.844 151.823 372.719 152.469C375.615 153.115 377.958 153.885 379.75 154.781C381.542 155.677 382.865 156.76 383.719 158.031C384.594 159.281 385.031 160.812 385.031 162.625C385.031 165.646 383.823 168.073 381.406 169.906C378.99 171.719 375.854 172.625 372 172.625C369.292 172.625 366.896 172.146 364.812 171.188C362.729 170.229 361.094 168.896 359.906 167.188C358.74 165.458 358.156 163.594 358.156 161.594H363.938C364.042 163.531 364.812 165.073 366.25 166.219C367.708 167.344 369.625 167.906 372 167.906C374.188 167.906 375.938 167.469 377.25 166.594C378.583 165.698 379.25 164.51 379.25 163.031ZM409.344 172V126.5H422.188C426.146 126.5 429.646 127.375 432.688 129.125C435.729 130.875 438.073 133.365 439.719 136.594C441.385 139.823 442.229 143.531 442.25 147.719V150.625C442.25 154.917 441.417 158.677 439.75 161.906C438.104 165.135 435.74 167.615 432.656 169.344C429.594 171.073 426.021 171.958 421.938 172H409.344ZM415.344 131.438V167.094H421.656C426.281 167.094 429.875 165.656 432.438 162.781C435.021 159.906 436.312 155.812 436.312 150.5V147.844C436.312 142.677 435.094 138.667 432.656 135.812C430.24 132.938 426.802 131.479 422.344 131.438H415.344ZM486.312 172H480.281L457.375 136.938V172H451.344V126.5H457.375L480.344 161.719V126.5H486.312V172ZM503.406 172H497.406V126.5H503.406V172Z" fill="#DDDDDD"/>
</svg>
